<svg xmlns="http://www.w3.org/2000/svg" viewBox="0 0 15 15">
  <title>icon</title>
  <g>
    <rect x="4.04" y="4.36" width="9.45" height="1" rx="0.5" ry="0.5" fill="#fff"/>
    <rect x="-0.85" y="6.12" width="10.58" height="1" rx="0.5" ry="0.5" transform="translate(10.13 1.03) rotate(79.31)" fill="#fff"/>
    <rect x="9.6" y="6.46" width="5.34" height="1" rx="0.5" ry="0.5" transform="matrix(-0.34, 0.94, -0.94, -0.34, 22.94, -2.26)" fill="#fff"/>
    <rect x="6.91" y="6.38" width="4.93" height="1" rx="0.49" ry="0.49" transform="matrix(-0.34, 0.94, -0.94, -0.34, 19, 0.35)" fill="#fff"/>
    <rect x="4.06" y="6.32" width="5.03" height="1" rx="0.34" ry="0.34" transform="translate(15.21 2.91) rotate(109.58)" fill="#fff"/>
    <rect x="4.42" y="8.49" width="7.59" height="1" rx="0.5" ry="0.5" fill="#fff"/>
    <rect x="4.31" y="6.46" width="8.09" height="1" rx="0.49" ry="0.49" fill="#fff"/>
    <rect x="4.82" y="10.83" width="7.44" height="1" rx="0.5" ry="0.5" fill="#fff"/>
    <rect x="5.58" y="12.61" width="1" height="1" rx="0.5" ry="0.5" fill="#fff"/>
    <rect x="10.24" y="12.61" width="1" height="1" rx="0.5" ry="0.5" fill="#fff"/>
    <rect x="1.48" y="1.57" width="2.61" height="1" rx="0.5" ry="0.5" transform="translate(-0.4 0.68) rotate(-13.08)" fill="#fff"/>
  </g>
</svg>
