<svg xmlns="http://www.w3.org/2000/svg" viewBox="0 0 10 10">
  <title>icon</title>
  <g>
    <path d="M1.09,2L5.28,7.26a0.59,0.59,0,0,1,0,.71h0a0.35,0.35,0,0,1-.57,0L0.52,2.74A0.59,0.59,0,0,1,.52,2h0A0.35,0.35,0,0,1,1.09,2Z" fill="#163e73"/>
    <rect x="0.4" y="1.88" width="9.2" height="0.83" rx="0.41" ry="0.41" transform="translate(10 4.6) rotate(-180)" fill="#163e73"/>
    <path d="M4.71,7.26L8.91,2a0.35,0.35,0,0,1,.57,0h0a0.59,0.59,0,0,1,0,.71L5.28,8a0.35,0.35,0,0,1-.57,0h0A0.59,0.59,0,0,1,4.71,7.26Z" fill="#163e73"/>
  </g>
  <path d="M1.08,2.38L5,7.63,9,2.5Z" fill="#163e73"/>
</svg>
