<svg xmlns="http://www.w3.org/2000/svg" viewBox="0 0 14 14">
  <defs>
    <style>
      .a {
        fill: none;
        stroke: #000;
        stroke-miterlimit: 10;
      }
    </style>
  </defs>
  <title>icon</title>
  <path class="a" d="M8.08,7.84s2-3.78,1.18-6.34a1,1,0,0,0-.2-0.35A0.84,0.84,0,0,0,8.86,1h0a3.21,3.21,0,0,0-2-.17,3,3,0,0,0-.92.41c-0.13,1.08-.14,2.26.43,2.56,0.27,0.14.46,0,.71,0.11C7.74,4.27,7.76,6.22,7,7.64S4.67,10,3.9,9.62C3.64,9.49,3.64,9.28,3.37,9.14c-0.65-.34-1.67.33-2.5,1a1.76,1.76,0,0,0-.22,1,2.13,2.13,0,0,0,1.61,1.72h0a2.85,2.85,0,0,0,.64.07C5.39,13,7.17,9.58,8.08,7.84Z"/>
  <path class="a" d="M4.44,12.63a5.36,5.36,0,0,0,2.13.16c0.59-.08,1.49-0.2,1.69-0.75A0.71,0.71,0,0,0,8,11.22a0.75,0.75,0,0,0-.87.31,1,1,0,0,0,.06,1.13c0.62,0.8,2.79.43,3.06-.37a1,1,0,0,0-.66-1.19A0.68,0.68,0,0,0,9,11.5a1.17,1.17,0,0,0,.66,1.34c0.8,0.36,2.05-.52,2.28-1.47a1.18,1.18,0,0,0-.09-0.87A0.91,0.91,0,0,0,10.78,10a0.8,0.8,0,0,0-.12,1,1.36,1.36,0,0,0,1.28.31,2.77,2.77,0,0,0,1.69-.94"/>
</svg>
