<svg xmlns="http://www.w3.org/2000/svg" viewBox="0 0 15 15"><title>icon</title><g fill="#fff"><rect x="4.04" y="4.36" width="9.45" height="1" rx=".5" ry=".5"/><rect x="-.85" y="6.12" width="10.58" height="1" rx=".5" ry=".5" transform="rotate(79.31 4.444 6.626)"/><rect x="9.6" y="6.46" width="5.34" height="1" rx=".5" ry=".5" transform="rotate(109.9 12.266 6.918)"/><rect x="6.91" y="6.38" width="4.93" height="1" rx=".49" ry=".49" transform="rotate(109.9 9.38 6.841)"/><rect x="4.06" y="6.32" width="5.03" height="1" rx=".34" ry=".34" transform="rotate(109.58 6.578 6.822)"/><rect x="4.42" y="8.49" width="7.59" height="1" rx=".5" ry=".5"/><rect x="4.31" y="6.46" width="8.09" height="1" rx=".49" ry=".49"/><rect x="4.82" y="10.83" width="7.44" height="1" rx=".5" ry=".5"/><rect x="5.58" y="12.61" width="1" height="1" rx=".5" ry=".5"/><rect x="10.24" y="12.61" width="1" height="1" rx=".5" ry=".5"/><rect x="1.48" y="1.57" width="2.61" height="1" rx=".5" ry=".5" transform="rotate(-13.08 2.766 2.085)"/></g></svg>