<svg xmlns="http://www.w3.org/2000/svg" viewBox="0 0 14 14"><defs><style>.a{fill:none;stroke:#000;stroke-miterlimit:10}</style></defs><title>icon</title><path class="a" d="M8.08 7.84s2-3.78 1.18-6.34a1 1 0 0 0-.2-.35.84.84 0 0 0-.2-.15 3.21 3.21 0 0 0-2-.17 3 3 0 0 0-.92.41c-.13 1.08-.14 2.26.43 2.56.27.14.46 0 .71.11.66.36.68 2.31-.08 3.73S4.67 10 3.9 9.62c-.26-.13-.26-.34-.53-.48-.65-.34-1.67.33-2.5 1a1.76 1.76 0 0 0-.22 1 2.13 2.13 0 0 0 1.61 1.72 2.85 2.85 0 0 0 .64.07c2.49.07 4.27-3.35 5.18-5.09z"/><path class="a" d="M4.44 12.63a5.36 5.36 0 0 0 2.13.16c.59-.08 1.49-.2 1.69-.75a.71.71 0 0 0-.26-.82.75.75 0 0 0-.87.31 1 1 0 0 0 .06 1.13c.62.8 2.79.43 3.06-.37a1 1 0 0 0-.66-1.19.68.68 0 0 0-.59.4 1.17 1.17 0 0 0 .66 1.34c.8.36 2.05-.52 2.28-1.47a1.18 1.18 0 0 0-.09-.87.91.91 0 0 0-1.07-.5.8.8 0 0 0-.12 1 1.36 1.36 0 0 0 1.28.31 2.77 2.77 0 0 0 1.69-.94"/></svg>