<svg id="delivery.svg" xmlns="http://www.w3.org/2000/svg" width="33" height="32.031" viewBox="0 0 33 32.031"><defs><style>.cls-1{fill:#163e73;fill-rule:evenodd}</style></defs><path class="cls-1" d="M485.33 790.371a.656.656 0 0 0-.844-.392l-6.837 2.54a.663.663 0 0 0 .228 1.283.649.649 0 0 0 .227-.041l6.837-2.54a.663.663 0 0 0 .389-.85zm-8.716 3.238a.657.657 0 0 0-.845-.392l-.289.108a.662.662 0 0 0 .227 1.283.65.65 0 0 0 .228-.041l.289-.108a.664.664 0 0 0 .39-.85zm8.716-5.936a.657.657 0 0 0-.844-.392l-5.4 2.008a.663.663 0 0 0 .227 1.283.65.65 0 0 0 .228-.041l5.4-2.008a.663.663 0 0 0 .389-.85zm0-2.669a.657.657 0 0 0-.844-.392l-5.4 2.007a.663.663 0 0 0 .227 1.284.674.674 0 0 0 .228-.041l5.4-2.008a.663.663 0 0 0 .389-.854zm2.24-12.112l-15.842-5.886a.651.651 0 0 0-.456 0l-15.842 5.886a.651.651 0 0 0-.148.077.663.663 0 0 0-.282.543v18.939a.663.663 0 0 0 .43.621l15.842 5.886a.642.642 0 0 0 .228.041.655.655 0 0 0 .227-.041l15.842-5.886a.663.663 0 0 0 .43-.621v-18.938a.663.663 0 0 0-.429-.621zm-16.727 24.5l-14.743-5.02V774.7l3.173.864v8.021a.661.661 0 0 0 .43.621l7.1 2.637a.642.642 0 0 0 .228.041.652.652 0 0 0 .376-.119.662.662 0 0 0 .281-.543v-7.532l3.156 1.173v17.527zm-4.471-19.192v7.07l-5.784-2.149v-7.07zm-4.543-3.105l5.2-1.932 5.2 1.932-5.2 1.933zm9.671 3.6l-2.578-.958 5.435-2.02a.663.663 0 0 0 0-1.242l-7.1-2.637a.648.648 0 0 0-.455 0l-6.879 2.556-2.367-.88 13.944-5.181 13.944 5.181zm15.4 13.678l-14.743 5.016v-17.528L486.9 774.7v17.674z" transform="translate(-455 -766.969)"/></svg>