<svg id="payment.svg" xmlns="http://www.w3.org/2000/svg" width="30" height="31" viewBox="0 0 30 31"><defs><style>.cls-1{fill:#163e73;fill-rule:evenodd}</style></defs><path class="cls-1" d="M485 711.966h-1.071s-.046-6.809 0-7.483c.1-1.643-1.669-2.859-3.291-2.858h-1.969l-2.015-3.707a1.74 1.74 0 0 0-1.526-.918 1.72 1.72 0 0 0-.847.225l-7.5 4.051h-8.572A3.537 3.537 0 0 0 455 704.6v20.426a2.945 2.945 0 0 0 2.908 2.974h22.73a3.5 3.5 0 0 0 3.291-3.207v-6.414H485v-6.413zm-4.362-9.152a1.757 1.757 0 0 1 1.726 1.587h-2.186l-.862-1.587h1.322zm-5.791-4.549a.585.585 0 0 1 .79.231l3.21 5.9H464.06zm8.01 26.528a2.478 2.478 0 0 1-2.143 2.138h-23.571c-.962 0-1.072-1.154-1.072-2.138l.092-20.194a2.51 2.51 0 0 1 2.051-2.254h6.429l-2.977 2.056h-3.395a.6.6 0 0 0 0 1.19h1.3l21.14-.039h2.143v6.414h-4.286c-1.975 0-4.285 1.186-4.285 3.206 0 2.021 2.31 3.207 4.285 3.207h4.286v6.414zm1.072-7.483h-5.358c-1.334 0-3.214-.773-3.214-2.138 0-1.364 1.88-2.138 3.214-2.138h5.358v4.276zm-4.018-2.027a1.284 1.284 0 1 1-1.284-1.314 1.3 1.3 0 0 1 1.284 1.314z" transform="translate(-455 -697)"/></svg>