<svg id="time.svg" xmlns="http://www.w3.org/2000/svg" width="33.625" height="33.625" viewBox="0 0 33.625 33.625"><defs><style>.cls-1{fill:#163e73;fill-rule:evenodd}</style></defs><path class="cls-1" d="M483.879 635.121A16.8 16.8 0 1 0 488.8 647a16.686 16.686 0 0 0-4.921-11.879zM472 662.461A15.461 15.461 0 1 1 487.461 647 15.479 15.479 0 0 1 472 662.461zm0-29.623A14.162 14.162 0 1 0 486.162 647 14.178 14.178 0 0 0 472 632.838zm11.423 19.984l-1.93-1.114a.669.669 0 0 0-.669 1.159l1.928 1.113a12.927 12.927 0 0 1-3.772 3.772l-1.113-1.928a.669.669 0 0 0-1.159.669l1.115 1.93a12.739 12.739 0 0 1-5.154 1.383v-2.231a.669.669 0 0 0-1.338 0v2.231a12.738 12.738 0 0 1-5.153-1.383l1.114-1.93a.669.669 0 1 0-1.159-.669l-1.113 1.928a12.923 12.923 0 0 1-3.771-3.772l1.927-1.113a.669.669 0 1 0-.669-1.159l-1.93 1.114a12.73 12.73 0 0 1-1.383-5.153h2.231a.669.669 0 1 0 0-1.338h-2.231a12.734 12.734 0 0 1 1.383-5.153l1.93 1.114a.669.669 0 1 0 .669-1.159l-1.928-1.113a12.915 12.915 0 0 1 3.772-3.772l1.113 1.928a.669.669 0 1 0 1.159-.669l-1.114-1.93a12.73 12.73 0 0 1 5.153-1.383v2.231a.669.669 0 1 0 1.338 0v-2.231a12.734 12.734 0 0 1 5.153 1.383l-1.114 1.93a.669.669 0 1 0 1.159.669l1.113-1.928a12.927 12.927 0 0 1 3.772 3.772l-1.928 1.113a.669.669 0 1 0 .669 1.159l1.93-1.115a12.739 12.739 0 0 1 1.383 5.154h-2.231a.669.669 0 1 0 0 1.338h2.231a12.734 12.734 0 0 1-1.383 5.153zm-10.754-7.685v-4.295a.669.669 0 1 0-1.338 0v4.295a1.978 1.978 0 0 0-.842 3.141l-1.062 1.84a.669.669 0 1 0 1.159.669l1.062-1.839a1.945 1.945 0 0 0 .352.032 1.98 1.98 0 0 0 .669-3.843zm-.669 2.5a.641.641 0 1 1 .641-.641.641.641 0 0 1-.641.645zm0-9.677a.669.669 0 0 0-.669.669v.271a.669.669 0 1 0 1.338 0v-.268a.669.669 0 0 0-.669-.668z" transform="translate(-455.188 -630.188)"/></svg>