<svg id="delivery.svg" xmlns="http://www.w3.org/2000/svg" width="33" height="32.031" viewBox="0 0 33 32.031">
  <defs>
    <style>
      .cls-1 {
        fill: #163e73;
        fill-rule: evenodd;
      }
    </style>
  </defs>
  <path class="cls-1" d="M485.33,790.371a0.656,0.656,0,0,0-.844-0.392l-6.837,2.54a0.663,0.663,0,0,0,.228,1.283,0.649,0.649,0,0,0,.227-0.041l6.837-2.54A0.663,0.663,0,0,0,485.33,790.371Zm-8.716,3.238a0.657,0.657,0,0,0-.845-0.392l-0.289.108a0.662,0.662,0,0,0,.227,1.283,0.65,0.65,0,0,0,.228-0.041l0.289-.108A0.664,0.664,0,0,0,476.614,793.609Zm8.716-5.936a0.657,0.657,0,0,0-.844-0.392l-5.4,2.008a0.663,0.663,0,0,0,.227,1.283,0.65,0.65,0,0,0,.228-0.041l5.4-2.008A0.663,0.663,0,0,0,485.33,787.673Zm0-2.669a0.657,0.657,0,0,0-.844-0.392l-5.4,2.007a0.663,0.663,0,0,0,.227,1.284,0.674,0.674,0,0,0,.228-0.041l5.4-2.008A0.663,0.663,0,0,0,485.33,785Zm2.24-12.112-15.842-5.886a0.651,0.651,0,0,0-.456,0l-15.842,5.886h0a0.651,0.651,0,0,0-.148.077,0.663,0.663,0,0,0-.282.543v18.939a0.663,0.663,0,0,0,.43.621l15.842,5.886a0.642,0.642,0,0,0,.228.041,0.655,0.655,0,0,0,.227-0.041h0l15.842-5.886a0.663,0.663,0,0,0,.43-0.621V773.513A0.663,0.663,0,0,0,487.57,772.892Zm-16.727,24.5L456.1,792.372V774.7l3.173,0.864v8.021a0.661,0.661,0,0,0,.43.621l7.1,2.637a0.642,0.642,0,0,0,.228.041,0.652,0.652,0,0,0,.376-0.119,0.662,0.662,0,0,0,.281-0.543v-7.532l3.156,1.173v17.527h0ZM466.372,778.2v7.07l-5.784-2.149v-7.07Zm-4.543-3.105,5.2-1.932,5.2,1.932-5.2,1.933Zm9.671,3.6-2.578-.958,5.435-2.02a0.663,0.663,0,0,0,0-1.242l-7.1-2.637a0.648,0.648,0,0,0-.455,0l-6.879,2.556-2.367-.88,13.944-5.181,13.944,5.181Zm15.4,13.678-14.743,5.016V779.861L486.9,774.7v17.674Z" transform="translate(-455 -766.969)"/>
</svg>
